<svg xmlns="http://www.w3.org/2000/svg" viewBox="0 0 48 48" width="48" height="48">
  <defs>
    <linearGradient id="gm" x1="0%" y1="0%" x2="100%" y2="100%">
      <stop offset="0%" stop-color="#0f7056"/>
      <stop offset="100%" stop-color="#0a4d3c"/>
    </linearGradient>
  </defs>
  <!-- Background circle -->
  <circle cx="24" cy="24" r="23" fill="url(#gm)" stroke="#a68c5c" stroke-width="1.5"/>
  <!-- Simplified palm tree -->
  <rect x="22.5" y="25" width="3" height="14" rx="1" fill="#c89728"/>
  <!-- Palm fronds -->
  <g fill="#4ade80">
    <path d="M 24 25 Q 12 19 5 22 Q 11 24 14 24 Q 11 27 9 30 Q 17 26 22 25 Z"/>
    <path d="M 24 25 Q 36 19 43 22 Q 37 24 34 24 Q 37 27 39 30 Q 31 26 26 25 Z"/>
    <path d="M 24 25 Q 20 14 15 8 Q 22 14 23 19 Q 25 14 33 8 Q 28 14 24 25 Z"/>
  </g>
  <!-- Wave -->
  <path d="M 10 40 Q 16 38 22 40 T 34 40 T 40 40" stroke="#c85a1f" stroke-width="1.5" fill="none"/>
</svg>
